<?xml version="1.0" encoding="UTF-8"?>
<svg width="16px" height="16px" viewBox="0 0 16 16" version="1.1" xmlns="http://www.w3.org/2000/svg" xmlns:xlink="http://www.w3.org/1999/xlink">
    <!-- Generator: Sketch 52.6 (67491) - http://www.bohemiancoding.com/sketch -->
    <title>phone</title>
    <desc>Created with Sketch.</desc>
    <g id="Page-1" stroke="none" stroke-width="1" fill="none" fill-rule="evenodd">
        <g id="Main-Menu-v2" transform="translate(-331.000000, -579.000000)" fill="#FFFFFF" stroke="rgb(107 114 128)">
            <g id="card" transform="translate(20.000000, 381.000000)">
                <path d="M325.491675,199.672945 C325.789705,199.741305 326.000257,200.006544 326.000257,200.312798 C326.000257,207.326453 320.315494,213.000268 313.312787,213.000268 C313.003809,213.000268 312.741294,212.786993 312.672935,212.491686 L312.016686,209.647943 C311.945603,209.338938 312.106942,209.021762 312.399498,208.893241 L315.46199,207.580744 C315.72998,207.465896 316.041682,207.542479 316.227614,207.769426 L317.583876,209.426443 C319.724881,208.422924 321.44481,206.678403 322.429183,204.581137 L320.772139,203.224901 C320.545192,203.041693 320.468635,202.72724 320.583484,202.459278 L321.895981,199.396785 C322.021751,199.106952 322.338927,198.945614 322.647932,199.016697 L325.491675,199.672945 Z" id="phone"></path>
            </g>
        </g>
    </g>
</svg>